<svg width="16" height="16" viewBox="0 0 16 16" fill="none" xmlns="http://www.w3.org/2000/svg">
<path d="M15.399 1.8579H9.73417C9.43968 1.05966 8.6713 0.488993 7.77203 0.488993H3.12424C2.79229 0.488993 2.52325 0.758032 2.52325 1.08997V1.34659H1.92588V0.889647C1.92588 0.557705 1.65684 0.288666 1.3249 0.288666C0.992955 0.288666 0.723916 0.557705 0.723916 0.889647V14.5094H0.600982C0.269039 14.5094 0 14.7784 0 15.1103C0 15.4423 0.269039 15.7113 0.600982 15.7113H2.04888C2.38082 15.7113 2.64986 15.4423 2.64986 15.1103C2.64986 14.7784 2.38082 14.5094 2.04888 14.5094H1.92588V8.35805H2.52325V8.69333C2.52325 9.02527 2.79229 9.29431 3.12424 9.29431H8.78902C9.0835 10.0925 9.85189 10.6632 10.7512 10.6632H15.399C15.731 10.6632 16 10.3942 16 10.0622V2.45888C16 2.12694 15.731 1.8579 15.399 1.8579ZM1.92588 7.15608V2.54856H2.52325V7.15608H1.92588ZM8.66061 8.09241H3.72522V1.69096H7.77209C8.26203 1.69096 8.66068 2.08954 8.66068 2.57954V8.09241H8.66061ZM14.798 9.46125H10.7512C10.2612 9.46125 9.86258 9.06266 9.86258 8.57266V3.05986H14.798V9.46125Z" fill="#767676"/>
</svg>
