<svg width="129" height="129" viewBox="0 0 129 129" fill="none" xmlns="http://www.w3.org/2000/svg">
<path d="M102.392 8.91577H86.3063C85.432 6.32741 82.9824 4.45788 80.1026 4.45788H73.2999C71.2353 1.68146 67.9649 0 64.5 0C61.0354 0 57.7647 1.68146 55.6999 4.45788H48.8974C46.0176 4.45788 43.568 6.32741 42.6937 8.91577H26.608C21.7687 8.91577 17.8315 12.8529 17.8315 17.6922V120.224C17.8315 125.063 21.7687 129 26.608 129H102.392C107.231 129 111.168 125.063 111.168 120.224V17.6922C111.168 12.8529 107.231 8.91577 102.392 8.91577ZM48.8974 24.2397H80.1026C82.0593 24.2397 83.8171 23.3757 85.0177 22.0108H98.0734V115.905H30.9266V22.0108H43.9823C45.1829 23.3757 46.9407 24.2397 48.8974 24.2397ZM48.8974 8.63715H56.8207C57.5647 8.63715 58.2526 8.24179 58.6267 7.59874C59.873 5.45756 62.0685 4.17927 64.5 4.17927C66.9318 4.17927 69.127 5.45756 70.373 7.59846C70.7472 8.24151 71.4354 8.63715 72.179 8.63715H80.1026C81.4085 8.63715 82.4708 9.69952 82.4708 11.0054V17.6922C82.4708 18.9981 81.4085 20.0605 80.1026 20.0605H48.8974C47.5915 20.0605 46.5292 18.9981 46.5292 17.6922V11.0054C46.5292 9.69952 47.5915 8.63715 48.8974 8.63715ZM106.989 120.224C106.989 122.758 104.927 124.821 102.392 124.821H26.608C24.0731 124.821 22.0108 122.758 22.0108 120.224V17.6922C22.0108 15.1574 24.0731 13.095 26.608 13.095H42.3499V17.6922C42.3499 17.739 42.3524 17.785 42.3535 17.8315H28.8369C27.6826 17.8315 26.7473 18.7671 26.7473 19.9212V117.995C26.7473 119.149 27.6826 120.084 28.8369 120.084H100.163C101.317 120.084 102.253 119.149 102.253 117.995V19.9212C102.253 18.7671 101.317 17.8315 100.163 17.8315H86.6465C86.6476 17.785 86.6501 17.739 86.6501 17.6922V13.095H102.392C104.927 13.095 106.989 15.1574 106.989 17.6922V120.224Z" fill="#297BDB"/>
<path d="M64.4998 13.095C65.0512 13.095 65.5892 12.8721 65.9765 12.4821C66.3665 12.0948 66.5894 11.5543 66.5894 11.0054C66.5894 10.4565 66.3665 9.91601 65.9765 9.52873C65.5892 9.13867 65.0515 8.91577 64.4998 8.91577C63.9481 8.91577 63.4104 9.13867 63.0231 9.52873C62.633 9.91601 62.4102 10.4537 62.4102 11.0054C62.4102 11.5571 62.633 12.0948 63.0231 12.4821C63.4104 12.8721 63.9481 13.095 64.4998 13.095Z" fill="#297BDB"/>
<path d="M51.1263 44.3002H89.0183C90.1726 44.3002 91.1079 43.3646 91.1079 42.2106C91.1079 41.0565 90.1726 40.1209 89.0183 40.1209H51.1263C49.9719 40.1209 49.0366 41.0565 49.0366 42.2106C49.0366 43.3646 49.9719 44.3002 51.1263 44.3002Z" fill="#297BDB"/>
<path d="M51.1263 66.5896H89.0183C90.1726 66.5896 91.1079 65.654 91.1079 64.5C91.1079 63.346 90.1726 62.4104 89.0183 62.4104H51.1263C49.9719 62.4104 49.0366 63.346 49.0366 64.5C49.0366 65.654 49.9719 66.5896 51.1263 66.5896Z" fill="#297BDB"/>
<path d="M51.1263 88.879H57.8131C58.9674 88.879 59.9027 87.9435 59.9027 86.7894C59.9027 85.6354 58.9674 84.6998 57.8131 84.6998H51.1263C49.9719 84.6998 49.0366 85.6354 49.0366 86.7894C49.0366 87.9435 49.9719 88.879 51.1263 88.879Z" fill="#297BDB"/>
<path d="M51.1263 55.4449H89.0183C90.1726 55.4449 91.1079 54.5093 91.1079 53.3553C91.1079 52.2013 90.1726 51.2657 89.0183 51.2657H51.1263C49.9719 51.2657 49.0366 52.2013 49.0366 53.3553C49.0366 54.5093 49.9719 55.4449 51.1263 55.4449Z" fill="#297BDB"/>
<path d="M51.1263 77.7344H60.042C61.1963 77.7344 62.1317 76.7988 62.1317 75.6447C62.1317 74.4907 61.1963 73.5551 60.042 73.5551H51.1263C49.9719 73.5551 49.0366 74.4907 49.0366 75.6447C49.0366 76.7988 49.9719 77.7344 51.1263 77.7344Z" fill="#297BDB"/>
<path d="M51.1263 100.024H60.042C61.1963 100.024 62.1317 99.0882 62.1317 97.9341C62.1317 96.7801 61.1963 95.8445 60.042 95.8445H51.1263C49.9719 95.8445 49.0366 96.7801 49.0366 97.9341C49.0366 99.0882 49.9719 100.024 51.1263 100.024Z" fill="#297BDB"/>
<path d="M39.9817 44.3002H42.2107C43.365 44.3002 44.3003 43.3646 44.3003 42.2106C44.3003 41.0565 43.365 40.1209 42.2107 40.1209H39.9817C38.8274 40.1209 37.8921 41.0565 37.8921 42.2106C37.8921 43.3646 38.8274 44.3002 39.9817 44.3002Z" fill="#297BDB"/>
<path d="M39.9817 66.5896H42.2107C43.365 66.5896 44.3003 65.654 44.3003 64.5C44.3003 63.346 43.365 62.4104 42.2107 62.4104H39.9817C38.8274 62.4104 37.8921 63.346 37.8921 64.5C37.8921 65.654 38.8274 66.5896 39.9817 66.5896Z" fill="#297BDB"/>
<path d="M39.9817 88.879H42.2107C43.365 88.879 44.3003 87.9435 44.3003 86.7894C44.3003 85.6354 43.365 84.6998 42.2107 84.6998H39.9817C38.8274 84.6998 37.8921 85.6354 37.8921 86.7894C37.8921 87.9435 38.8274 88.879 39.9817 88.879Z" fill="#297BDB"/>
<path d="M39.9817 55.4449H42.2107C43.365 55.4449 44.3003 54.5093 44.3003 53.3553C44.3003 52.2013 43.365 51.2657 42.2107 51.2657H39.9817C38.8274 51.2657 37.8921 52.2013 37.8921 53.3553C37.8921 54.5093 38.8274 55.4449 39.9817 55.4449Z" fill="#297BDB"/>
<path d="M39.9817 77.7344H42.2107C43.365 77.7344 44.3003 76.7988 44.3003 75.6447C44.3003 74.4907 43.365 73.5551 42.2107 73.5551H39.9817C38.8274 73.5551 37.8921 74.4907 37.8921 75.6447C37.8921 76.7988 38.8274 77.7344 39.9817 77.7344Z" fill="#297BDB"/>
<path d="M39.9817 100.024H42.2107C43.365 100.024 44.3003 99.0882 44.3003 97.9341C44.3003 96.7801 43.365 95.8445 42.2107 95.8445H39.9817C38.8274 95.8445 37.8921 96.7801 37.8921 97.9341C37.8921 99.0882 38.8274 100.024 39.9817 100.024Z" fill="#297BDB"/>
<path d="M77.8735 73.5551C70.5762 73.5551 64.6392 79.4921 64.6392 86.7894C64.6392 94.0867 70.5762 100.024 77.8735 100.024C80.8221 100.024 83.5481 99.0536 85.7506 97.4167C85.7712 97.4023 85.7938 97.3922 85.8141 97.3769C85.8698 97.3351 85.9225 97.2908 85.9729 97.2448C89.0937 94.8217 91.1078 91.0375 91.1078 86.7894C91.1078 79.4921 85.1708 73.5551 77.8735 73.5551ZM75.7839 77.9804V84.6998H69.0644C69.8515 81.3826 72.4666 78.7675 75.7839 77.9804ZM69.0644 88.8791H76.8287L81.4869 95.09C80.3791 95.574 79.1576 95.8445 77.8735 95.8445C73.5998 95.8445 70.0106 92.8675 69.0644 88.8791ZM84.8286 92.5802L79.9631 86.0929V77.9804C83.9515 78.9266 86.9286 82.5157 86.9286 86.7894C86.9286 88.9899 86.1387 91.0094 84.8286 92.5802Z" fill="#297BDB"/>
</svg>
