<svg width="120" height="120" viewBox="0 0 120 120" fill="none" xmlns="http://www.w3.org/2000/svg">
<circle cx="60" cy="60" r="60" fill="#297BDB"/>
<mask id="mask0_1_45" style="mask-type:alpha" maskUnits="userSpaceOnUse" x="21" y="21" width="78" height="80">
<rect x="21.6" y="21.6" width="76.8" height="79.2" fill="#D9D9D9"/>
</mask>
<g mask="url(#mask0_1_45)">
<path d="M60.0001 90.3595C55.8401 90.3595 51.9062 89.5406 48.1985 87.9028C44.4929 86.2651 41.2662 84.0399 38.5185 81.2274C35.7729 78.417 33.6001 75.1153 32.0001 71.3223C30.4001 67.5271 29.6001 63.5004 29.6001 59.2422C29.6001 54.9295 30.4001 50.8897 32.0001 47.1229C33.6001 43.3561 35.7729 40.0664 38.5185 37.2538C41.2662 34.4434 44.4929 32.2194 48.1985 30.5816C51.9062 28.9439 55.8401 28.125 60.0001 28.125C64.2134 28.125 68.1601 28.9439 71.8401 30.5816C75.5201 32.2194 78.7329 34.4434 81.4785 37.2538C84.2262 40.0664 86.4001 43.3561 88.0001 47.1229C89.6001 50.8897 90.4001 54.9295 90.4001 59.2422C90.4001 63.5004 89.6001 67.5271 88.0001 71.3223C86.4001 75.1153 84.2262 78.417 81.4785 81.2274C78.7329 84.0399 75.5201 86.2651 71.8401 87.9028C68.1601 89.5406 64.2134 90.3595 60.0001 90.3595ZM60.0001 33.0382C53.9201 33.0382 48.5868 34.949 44.0001 38.7704C39.4134 42.5918 36.4534 47.3958 35.1201 53.1826C36.2934 53.0188 37.5606 52.4729 38.9217 51.5448C40.2806 50.6168 41.7334 48.5696 43.2801 45.4033C44.0268 43.8201 45.1073 42.5918 46.5217 41.7183C47.934 40.8449 49.4934 40.4081 51.2001 40.4081H68.8001C70.5068 40.4081 72.0662 40.8449 73.4785 41.7183C74.8929 42.5918 75.9734 43.7928 76.7201 45.3214C78.3201 48.5969 79.8134 50.6844 81.2001 51.5841C82.5868 52.486 83.8134 53.0188 84.8801 53.1826C83.5468 47.3958 80.5868 42.5918 76.0001 38.7704C71.4134 34.949 66.0801 33.0382 60.0001 33.0382ZM60.0001 85.4462C67.1468 85.4462 73.214 82.8804 78.2017 77.7488C83.1873 72.6172 85.6534 66.421 85.6001 59.1603V58.2596C82.1334 57.932 79.4006 56.7583 77.4017 54.7384C75.4006 52.7185 73.7334 50.3165 72.4001 47.5323C72.0268 46.8226 71.534 46.2767 70.9217 45.8946C70.3073 45.5124 69.6268 45.3214 68.8801 45.3214H51.2001C50.4001 45.3214 49.694 45.5124 49.0817 45.8946C48.4673 46.2767 47.9734 46.8226 47.6001 47.5323C46.2668 50.3711 44.5868 52.8004 42.5601 54.8203C40.5334 56.8402 37.8134 58.0139 34.4001 58.3415V59.1603C34.4001 66.4756 36.894 72.686 41.8817 77.7914C46.8673 82.8946 52.9068 85.4462 60.0001 85.4462ZM50.4001 66.6121C49.2801 66.6121 48.334 66.2158 47.5617 65.4231C46.7873 64.6326 46.4001 63.6642 46.4001 62.5177C46.4001 61.3713 46.7873 60.4029 47.5617 59.6124C48.334 58.8197 49.2801 58.4234 50.4001 58.4234C51.5201 58.4234 52.4662 58.8197 53.2385 59.6124C54.0129 60.4029 54.4001 61.3713 54.4001 62.5177C54.4001 63.6642 54.0129 64.6326 53.2385 65.4231C52.4662 66.2158 51.5201 66.6121 50.4001 66.6121ZM69.6001 66.6121C68.4801 66.6121 67.534 66.2158 66.7617 65.4231C65.9873 64.6326 65.6001 63.6642 65.6001 62.5177C65.6001 61.3713 65.9873 60.4029 66.7617 59.6124C67.534 58.8197 68.4801 58.4234 69.6001 58.4234C70.7201 58.4234 71.6662 58.8197 72.4385 59.6124C73.2129 60.4029 73.6001 61.3713 73.6001 62.5177C73.6001 63.6642 73.2129 64.6326 72.4385 65.4231C71.6662 66.2158 70.7201 66.6121 69.6001 66.6121Z" fill="white"/>
</g>
</svg>
