<svg width="124" height="131" viewBox="0 0 124 131" fill="none" xmlns="http://www.w3.org/2000/svg">
<path d="M122.363 82.1512L112.787 73.9631C113.24 71.185 113.474 68.3484 113.474 65.5119C113.474 62.6753 113.24 59.8387 112.787 57.0606L122.363 48.8725C123.085 48.2541 123.602 47.4305 123.845 46.5111C124.088 45.5918 124.045 44.6202 123.722 43.7257L123.591 43.3456C120.954 35.9767 117.007 29.1457 111.939 23.1825L111.676 22.8754C111.061 22.1524 110.242 21.6327 109.326 21.3847C108.41 21.1368 107.44 21.1722 106.545 21.4864L94.6593 25.712C90.2735 22.1151 85.3761 19.2785 80.0839 17.29L77.7887 4.86167C77.6156 3.9265 77.162 3.06617 76.4883 2.39498C75.8146 1.72378 74.9526 1.27349 74.017 1.10393L73.6223 1.03082C66.0057 -0.343606 57.9943 -0.343606 50.3777 1.03082L49.983 1.10393C49.0474 1.27349 48.1854 1.72378 47.5117 2.39498C46.838 3.06617 46.3844 3.9265 46.2113 4.86167L43.9014 17.3485C38.6515 19.3374 33.7626 22.1725 29.4285 25.7412L17.4553 21.4864C16.5601 21.1697 15.5898 21.133 14.6732 21.3811C13.7567 21.6292 12.9373 22.1504 12.324 22.8754L12.0609 23.1825C6.99891 29.1499 3.05216 35.9798 0.409367 43.3456L0.277794 43.7257C-0.380069 45.5534 0.160841 47.6005 1.63738 48.8725L11.3299 57.1483C10.8767 59.8972 10.6574 62.7045 10.6574 65.4972C10.6574 68.3046 10.8767 71.1119 11.3299 73.8461L1.63738 82.1219C0.915128 82.7403 0.398204 83.564 0.155344 84.4833C-0.0875173 85.4027 -0.0448078 86.3742 0.277794 87.2687L0.409367 87.6489C3.05544 95.0182 6.97338 101.817 12.0609 107.812L12.324 108.119C12.9388 108.842 13.7582 109.362 14.6742 109.61C15.5902 109.858 16.5599 109.822 17.4553 109.508L29.4285 105.253C33.785 108.836 38.6532 111.672 43.9014 113.646L46.2113 126.133C46.3844 127.068 46.838 127.928 47.5117 128.6C48.1854 129.271 49.0474 129.721 49.983 129.891L50.3777 129.964C58.0643 131.345 65.9357 131.345 73.6223 129.964L74.017 129.891C74.9526 129.721 75.8146 129.271 76.4883 128.6C77.162 127.928 77.6156 127.068 77.7887 126.133L80.0839 113.704C85.3739 111.721 90.299 108.875 94.6593 105.282L106.545 109.508C107.44 109.825 108.41 109.862 109.327 109.613C110.243 109.365 111.063 108.844 111.676 108.119L111.939 107.812C117.027 101.803 120.945 95.0182 123.591 87.6489L123.722 87.2687C124.38 85.4703 123.839 83.4233 122.363 82.1512ZM102.407 58.7859C102.773 60.9938 102.963 63.2601 102.963 65.5265C102.963 67.7928 102.773 70.0592 102.407 72.267L101.443 78.1303L112.363 87.4734C110.708 91.288 108.618 94.899 106.135 98.2349L92.5687 93.4244L87.9783 97.1968C84.4843 100.063 80.5956 102.314 76.3853 103.893L70.8154 105.984L68.1985 120.167C64.0696 120.635 59.9011 120.635 55.7722 120.167L53.1554 105.955L47.6293 103.835C43.4629 102.256 39.5888 100.004 36.124 97.1529L31.5336 93.3659L17.8793 98.2203C15.394 94.8719 13.3181 91.2604 11.6515 87.4588L22.689 78.0279L21.7388 72.1793C21.3879 70.0007 21.1979 67.749 21.1979 65.5265C21.1979 63.2894 21.3733 61.0523 21.7388 58.8737L22.689 53.0251L11.6515 43.5942C13.3035 39.7779 15.394 36.181 17.8793 32.8327L31.5336 37.687L36.124 33.9001C39.5888 31.0489 43.4629 28.7971 47.6293 27.218L53.17 25.1271L55.7868 10.915C59.8948 10.4471 64.0905 10.4471 68.2132 10.915L70.83 25.0979L76.3999 27.1888C80.5956 28.7679 84.4989 31.0196 87.9929 33.8854L92.5833 37.6578L106.15 32.8473C108.635 36.1956 110.711 39.8072 112.378 43.6088L101.457 52.9519L102.407 58.7859ZM62.0146 38.3304C47.8048 38.3304 36.2849 49.8522 36.2849 64.0643C36.2849 78.2765 47.8048 89.7983 62.0146 89.7983C76.2245 89.7983 87.7444 78.2765 87.7444 64.0643C87.7444 49.8522 76.2245 38.3304 62.0146 38.3304ZM73.593 75.6446C72.0744 77.1678 70.2697 78.3757 68.2826 79.1988C66.2955 80.0218 64.1653 80.4438 62.0146 80.4405C57.6435 80.4405 53.5355 78.7298 50.4362 75.6446C48.9132 74.1257 47.7056 72.3207 46.8826 70.3333C46.0597 68.3459 45.6378 66.2154 45.6411 64.0643C45.6411 59.6925 47.3516 55.5838 50.4362 52.4841C53.5355 49.3843 57.6435 47.6882 62.0146 47.6882C66.3858 47.6882 70.4937 49.3843 73.593 52.4841C75.116 54.0029 76.3237 55.808 77.1466 57.7953C77.9695 59.7827 78.3915 61.9132 78.3881 64.0643C78.3881 68.4362 76.6777 72.5448 73.593 75.6446Z" fill="#297BDB"/>
</svg>
