<svg width="205" height="242" viewBox="0 0 205 242" fill="none" xmlns="http://www.w3.org/2000/svg">
<g filter="url(#filter0_i_249_280)">
<path d="M2.53906 199.562H13.1445C15.319 199.562 17.1875 199.888 18.75 200.539C20.3255 201.19 21.5365 202.154 22.3828 203.43C23.2292 204.706 23.6523 206.275 23.6523 208.137C23.6523 209.66 23.3919 210.969 22.8711 212.062C22.3633 213.143 21.6406 214.048 20.7031 214.777C19.7786 215.493 18.6914 216.066 17.4414 216.496L15.5859 217.473H6.36719L6.32812 212.902H13.1836C14.2122 212.902 15.0651 212.72 15.7422 212.355C16.4193 211.991 16.9271 211.483 17.2656 210.832C17.6172 210.181 17.793 209.426 17.793 208.566C17.793 207.655 17.6237 206.867 17.2852 206.203C16.9466 205.539 16.4323 205.031 15.7422 204.68C15.0521 204.328 14.1862 204.152 13.1445 204.152H8.39844V228H2.53906V199.562ZM18.4375 228L11.9531 215.324L18.1445 215.285L24.707 227.727V228H18.4375ZM37.7391 228.391C36.0984 228.391 34.6271 228.13 33.325 227.609C32.0229 227.076 30.9161 226.34 30.0047 225.402C29.1063 224.465 28.4161 223.378 27.9344 222.141C27.4526 220.891 27.2117 219.562 27.2117 218.156V217.375C27.2117 215.773 27.4396 214.309 27.8953 212.98C28.351 211.652 29.0021 210.5 29.8484 209.523C30.7078 208.547 31.7495 207.798 32.9734 207.277C34.1974 206.743 35.5776 206.477 37.1141 206.477C38.6115 206.477 39.9396 206.724 41.0984 207.219C42.2573 207.714 43.2273 208.417 44.0086 209.328C44.8029 210.24 45.4018 211.333 45.8055 212.609C46.2091 213.872 46.4109 215.279 46.4109 216.828V219.172H29.6141V215.422H40.8836V214.992C40.8836 214.211 40.7404 213.514 40.4539 212.902C40.1805 212.277 39.7638 211.783 39.2039 211.418C38.644 211.053 37.9279 210.871 37.0555 210.871C36.3133 210.871 35.6753 211.034 35.1414 211.359C34.6076 211.685 34.1714 212.141 33.8328 212.727C33.5073 213.312 33.2599 214.003 33.0906 214.797C32.9344 215.578 32.8563 216.438 32.8563 217.375V218.156C32.8563 219.003 32.9734 219.784 33.2078 220.5C33.4552 221.216 33.8003 221.835 34.243 222.355C34.6987 222.876 35.2456 223.28 35.8836 223.566C36.5346 223.853 37.2703 223.996 38.0906 223.996C39.1063 223.996 40.0503 223.801 40.9227 223.41C41.8081 223.007 42.5698 222.401 43.2078 221.594L45.9422 224.562C45.4995 225.201 44.894 225.812 44.1258 226.398C43.3706 226.984 42.4591 227.466 41.3914 227.844C40.3237 228.208 39.1063 228.391 37.7391 228.391ZM55.4391 210.93V236.125H49.8141V206.867H55.0289L55.4391 210.93ZM68.818 217.199V217.609C68.818 219.146 68.6357 220.572 68.2711 221.887C67.9195 223.202 67.3987 224.348 66.7086 225.324C66.0185 226.288 65.1591 227.043 64.1305 227.59C63.1148 228.124 61.943 228.391 60.6148 228.391C59.3258 228.391 58.206 228.13 57.2555 227.609C56.3049 227.089 55.5042 226.359 54.8531 225.422C54.2151 224.471 53.7008 223.371 53.3102 222.121C52.9195 220.871 52.6201 219.53 52.4117 218.098V217.023C52.6201 215.487 52.9195 214.081 53.3102 212.805C53.7008 211.516 54.2151 210.402 54.8531 209.465C55.5042 208.514 56.2984 207.779 57.2359 207.258C58.1865 206.737 59.2997 206.477 60.5758 206.477C61.9169 206.477 63.0953 206.73 64.1109 207.238C65.1396 207.746 65.999 208.475 66.6891 209.426C67.3922 210.376 67.9195 211.509 68.2711 212.824C68.6357 214.139 68.818 215.598 68.818 217.199ZM63.1734 217.609V217.199C63.1734 216.301 63.0953 215.474 62.9391 214.719C62.7958 213.951 62.5615 213.28 62.2359 212.707C61.9234 212.134 61.5068 211.691 60.9859 211.379C60.4781 211.053 59.8596 210.891 59.1305 210.891C58.3622 210.891 57.7047 211.014 57.1578 211.262C56.624 211.509 56.1878 211.867 55.8492 212.336C55.5107 212.805 55.2568 213.365 55.0875 214.016C54.9182 214.667 54.8141 215.402 54.775 216.223V218.938C54.8401 219.901 55.0224 220.767 55.3219 221.535C55.6214 222.29 56.0836 222.889 56.7086 223.332C57.3336 223.775 58.1539 223.996 59.1695 223.996C59.9117 223.996 60.5367 223.833 61.0445 223.508C61.5523 223.169 61.9625 222.707 62.275 222.121C62.6005 221.535 62.8284 220.858 62.9586 220.09C63.1018 219.322 63.1734 218.495 63.1734 217.609ZM71.6156 217.648V217.238C71.6156 215.689 71.837 214.263 72.2797 212.961C72.7224 211.646 73.3669 210.507 74.2133 209.543C75.0596 208.579 76.1013 207.831 77.3383 207.297C78.5753 206.75 79.9945 206.477 81.5961 206.477C83.1977 206.477 84.6234 206.75 85.8734 207.297C87.1234 207.831 88.1716 208.579 89.018 209.543C89.8773 210.507 90.5284 211.646 90.9711 212.961C91.4138 214.263 91.6352 215.689 91.6352 217.238V217.648C91.6352 219.185 91.4138 220.611 90.9711 221.926C90.5284 223.228 89.8773 224.367 89.018 225.344C88.1716 226.307 87.1299 227.056 85.893 227.59C84.656 228.124 83.2367 228.391 81.6352 228.391C80.0336 228.391 78.6078 228.124 77.3578 227.59C76.1208 227.056 75.0727 226.307 74.2133 225.344C73.3669 224.367 72.7224 223.228 72.2797 221.926C71.837 220.611 71.6156 219.185 71.6156 217.648ZM77.2406 217.238V217.648C77.2406 218.534 77.3187 219.361 77.475 220.129C77.6312 220.897 77.8786 221.574 78.2172 222.16C78.5687 222.733 79.0245 223.182 79.5844 223.508C80.1443 223.833 80.8279 223.996 81.6352 223.996C82.4164 223.996 83.087 223.833 83.6469 223.508C84.2068 223.182 84.656 222.733 84.9945 222.16C85.3331 221.574 85.5805 220.897 85.7367 220.129C85.906 219.361 85.9906 218.534 85.9906 217.648V217.238C85.9906 216.379 85.906 215.572 85.7367 214.816C85.5805 214.048 85.3266 213.371 84.975 212.785C84.6365 212.186 84.1872 211.717 83.6273 211.379C83.0674 211.04 82.3904 210.871 81.5961 210.871C80.8018 210.871 80.1247 211.04 79.5648 211.379C79.018 211.717 78.5687 212.186 78.2172 212.785C77.8786 213.371 77.6312 214.048 77.475 214.816C77.3187 215.572 77.2406 216.379 77.2406 217.238ZM100.917 211.477V228H95.2922V206.867H100.585L100.917 211.477ZM107.284 206.73L107.187 211.945C106.913 211.906 106.581 211.874 106.191 211.848C105.813 211.809 105.468 211.789 105.155 211.789C104.361 211.789 103.671 211.893 103.085 212.102C102.512 212.297 102.03 212.59 101.64 212.98C101.262 213.371 100.976 213.846 100.78 214.406C100.598 214.966 100.494 215.604 100.468 216.32L99.3352 215.969C99.3352 214.602 99.4719 213.345 99.7453 212.199C100.019 211.04 100.416 210.031 100.937 209.172C101.471 208.312 102.122 207.648 102.89 207.18C103.658 206.711 104.537 206.477 105.527 206.477C105.839 206.477 106.158 206.503 106.484 206.555C106.809 206.594 107.076 206.652 107.284 206.73ZM121.469 206.867V210.852H109.164V206.867H121.469ZM112.211 201.652H117.836V221.633C117.836 222.245 117.914 222.714 118.07 223.039C118.24 223.365 118.487 223.592 118.812 223.723C119.138 223.84 119.548 223.898 120.043 223.898C120.395 223.898 120.707 223.885 120.98 223.859C121.267 223.82 121.508 223.781 121.703 223.742L121.723 227.883C121.241 228.039 120.72 228.163 120.16 228.254C119.6 228.345 118.982 228.391 118.305 228.391C117.068 228.391 115.987 228.189 115.062 227.785C114.151 227.368 113.448 226.704 112.953 225.793C112.458 224.882 112.211 223.684 112.211 222.199V201.652ZM146.947 204.426L139.212 228H132.982L143.548 199.562H147.513L146.947 204.426ZM153.373 228L145.619 204.426L144.994 199.562H148.998L159.623 228H153.373ZM153.021 217.414V222.004H138.002V217.414H153.021ZM167.108 210.93V236.125H161.483V206.867H166.698L167.108 210.93ZM180.487 217.199V217.609C180.487 219.146 180.304 220.572 179.94 221.887C179.588 223.202 179.067 224.348 178.377 225.324C177.687 226.288 176.828 227.043 175.799 227.59C174.784 228.124 173.612 228.391 172.284 228.391C170.995 228.391 169.875 228.13 168.924 227.609C167.974 227.089 167.173 226.359 166.522 225.422C165.884 224.471 165.37 223.371 164.979 222.121C164.588 220.871 164.289 219.53 164.08 218.098V217.023C164.289 215.487 164.588 214.081 164.979 212.805C165.37 211.516 165.884 210.402 166.522 209.465C167.173 208.514 167.967 207.779 168.905 207.258C169.855 206.737 170.968 206.477 172.245 206.477C173.586 206.477 174.764 206.73 175.78 207.238C176.808 207.746 177.668 208.475 178.358 209.426C179.061 210.376 179.588 211.509 179.94 212.824C180.304 214.139 180.487 215.598 180.487 217.199ZM174.842 217.609V217.199C174.842 216.301 174.764 215.474 174.608 214.719C174.465 213.951 174.23 213.28 173.905 212.707C173.592 212.134 173.176 211.691 172.655 211.379C172.147 211.053 171.528 210.891 170.799 210.891C170.031 210.891 169.373 211.014 168.827 211.262C168.293 211.509 167.857 211.867 167.518 212.336C167.179 212.805 166.926 213.365 166.756 214.016C166.587 214.667 166.483 215.402 166.444 216.223V218.938C166.509 219.901 166.691 220.767 166.991 221.535C167.29 222.29 167.752 222.889 168.377 223.332C169.002 223.775 169.823 223.996 170.838 223.996C171.58 223.996 172.205 223.833 172.713 223.508C173.221 223.169 173.631 222.707 173.944 222.121C174.269 221.535 174.497 220.858 174.627 220.09C174.771 219.322 174.842 218.495 174.842 217.609ZM189.808 210.93V236.125H184.183V206.867H189.398L189.808 210.93ZM203.187 217.199V217.609C203.187 219.146 203.004 220.572 202.64 221.887C202.288 223.202 201.767 224.348 201.077 225.324C200.387 226.288 199.528 227.043 198.499 227.59C197.484 228.124 196.312 228.391 194.984 228.391C193.695 228.391 192.575 228.13 191.624 227.609C190.674 227.089 189.873 226.359 189.222 225.422C188.584 224.471 188.07 223.371 187.679 222.121C187.288 220.871 186.989 219.53 186.78 218.098V217.023C186.989 215.487 187.288 214.081 187.679 212.805C188.07 211.516 188.584 210.402 189.222 209.465C189.873 208.514 190.667 207.779 191.605 207.258C192.555 206.737 193.668 206.477 194.945 206.477C196.286 206.477 197.464 206.73 198.48 207.238C199.508 207.746 200.368 208.475 201.058 209.426C201.761 210.376 202.288 211.509 202.64 212.824C203.004 214.139 203.187 215.598 203.187 217.199ZM197.542 217.609V217.199C197.542 216.301 197.464 215.474 197.308 214.719C197.165 213.951 196.93 213.28 196.605 212.707C196.292 212.134 195.876 211.691 195.355 211.379C194.847 211.053 194.228 210.891 193.499 210.891C192.731 210.891 192.073 211.014 191.527 211.262C190.993 211.509 190.557 211.867 190.218 212.336C189.879 212.805 189.626 213.365 189.456 214.016C189.287 214.667 189.183 215.402 189.144 216.223V218.938C189.209 219.901 189.391 220.767 189.691 221.535C189.99 222.29 190.452 222.889 191.077 223.332C191.702 223.775 192.523 223.996 193.538 223.996C194.28 223.996 194.905 223.833 195.413 223.508C195.921 223.169 196.331 222.707 196.644 222.121C196.969 221.535 197.197 220.858 197.327 220.09C197.471 219.322 197.542 218.495 197.542 217.609Z" fill="#297BDB"/>
</g>
<g clip-path="url(#clip0_249_280)" filter="url(#filter1_i_249_280)">
<path d="M106.007 36.0625C104.86 34.9154 103.006 34.9154 101.859 36.0625C100.713 37.2092 100.713 39.0634 101.859 40.2102L113.593 51.9434C114.165 52.5154 114.916 52.8028 115.666 52.8028C116.417 52.8028 117.168 52.5154 117.74 51.9434C118.887 50.7963 118.887 48.9424 117.74 47.7957L106.007 36.0625Z" fill="#297BDB"/>
<path d="M88.407 41.9289C87.2603 40.7818 85.4061 40.7818 84.2594 41.9289C83.1126 43.076 83.1123 44.9298 84.2594 46.0766L107.726 69.5434C108.298 70.1154 109.049 70.4028 109.8 70.4028C110.551 70.4028 111.302 70.1154 111.874 69.5434C113.021 68.3963 113.021 66.5424 111.874 65.3957L88.407 41.9289Z" fill="#297BDB"/>
<path d="M138.978 113.538L152.019 126.579C152.591 127.154 153.342 127.439 154.093 127.439C154.841 127.439 155.592 127.154 156.167 126.579C157.311 125.435 157.311 123.578 156.167 122.432L142.43 108.695C149.608 97.6623 153.8 84.518 153.8 70.4029C153.8 31.586 122.217 0.0029068 83.3997 0.0029068C44.5827 0.0029068 13 31.5863 13 70.4032C13 109.22 44.5831 140.803 83.4 140.803C105.972 140.803 126.086 130.111 138.978 113.538ZM83.4 134.936C47.8157 134.936 18.8668 105.988 18.8668 70.4032C18.8668 34.8189 47.8157 5.86969 83.4 5.86969C118.984 5.86969 147.933 34.8186 147.933 70.4029C147.933 105.987 118.984 134.936 83.4 134.936Z" fill="#297BDB"/>
<path d="M83.4001 11.7363C51.0511 11.7363 24.7333 38.0542 24.7333 70.4031C24.7333 102.752 51.0511 129.07 83.4001 129.07C115.749 129.07 142.067 102.752 142.067 70.4028C142.067 38.0538 115.749 11.7363 83.4001 11.7363ZM83.4001 123.203C54.2868 123.203 30.6001 99.5163 30.6001 70.4031C30.6001 41.2899 54.2868 17.6031 83.4001 17.6031C112.513 17.6031 136.2 41.2899 136.2 70.4031C136.2 99.5163 112.513 123.203 83.4001 123.203Z" fill="#297BDB"/>
<path d="M184.703 150.967L164.146 130.413C163.597 129.862 162.852 129.554 162.072 129.554H162.069C161.292 129.554 160.544 129.865 159.992 130.419L151.72 138.735C150.576 139.885 150.582 141.739 151.732 142.883C152.882 144.027 154.739 144.024 155.88 142.871L162.078 136.641L180.555 155.115C182.215 156.778 183.133 158.987 183.133 161.339C183.133 163.686 182.215 165.898 180.555 167.558C177.126 170.987 171.546 170.993 168.112 167.561L133.352 132.801C132.208 131.657 130.351 131.657 129.204 132.801C128.06 133.948 128.06 135.805 129.204 136.952L163.964 171.709C166.821 174.569 170.576 175.998 174.33 175.998C178.085 175.998 181.845 174.566 184.703 171.709C187.472 168.937 189 165.255 189 161.339C189 157.42 187.472 153.736 184.703 150.967Z" fill="#297BDB"/>
</g>
<defs>
<filter id="filter0_i_249_280" x="2.53906" y="199.562" width="200.648" height="40.5625" filterUnits="userSpaceOnUse" color-interpolation-filters="sRGB">
<feFlood flood-opacity="0" result="BackgroundImageFix"/>
<feBlend mode="normal" in="SourceGraphic" in2="BackgroundImageFix" result="shape"/>
<feColorMatrix in="SourceAlpha" type="matrix" values="0 0 0 0 0 0 0 0 0 0 0 0 0 0 0 0 0 0 127 0" result="hardAlpha"/>
<feOffset dy="4"/>
<feGaussianBlur stdDeviation="2"/>
<feComposite in2="hardAlpha" operator="arithmetic" k2="-1" k3="1"/>
<feColorMatrix type="matrix" values="0 0 0 0 0 0 0 0 0 0 0 0 0 0 0 0 0 0 0.25 0"/>
<feBlend mode="normal" in2="shape" result="effect1_innerShadow_249_280"/>
</filter>
<filter id="filter1_i_249_280" x="13" y="0" width="176" height="180" filterUnits="userSpaceOnUse" color-interpolation-filters="sRGB">
<feFlood flood-opacity="0" result="BackgroundImageFix"/>
<feBlend mode="normal" in="SourceGraphic" in2="BackgroundImageFix" result="shape"/>
<feColorMatrix in="SourceAlpha" type="matrix" values="0 0 0 0 0 0 0 0 0 0 0 0 0 0 0 0 0 0 127 0" result="hardAlpha"/>
<feOffset dy="4"/>
<feGaussianBlur stdDeviation="2"/>
<feComposite in2="hardAlpha" operator="arithmetic" k2="-1" k3="1"/>
<feColorMatrix type="matrix" values="0 0 0 0 0 0 0 0 0 0 0 0 0 0 0 0 0 0 0.25 0"/>
<feBlend mode="normal" in2="shape" result="effect1_innerShadow_249_280"/>
</filter>
<clipPath id="clip0_249_280">
<rect width="176" height="176" fill="white" transform="translate(13)"/>
</clipPath>
</defs>
</svg>
