<svg width="114" height="123" viewBox="0 0 114 123" fill="none" xmlns="http://www.w3.org/2000/svg">
<path d="M87.9777 16.0339H26.0215C23.9686 16.0339 22.3042 17.8286 22.3042 20.0423V68.1441C22.3042 70.3578 23.9686 72.1525 26.0215 72.1525H87.9774C90.0303 72.1525 91.6947 70.3578 91.6947 68.1441V20.0425C91.6949 17.8286 90.0306 16.0339 87.9777 16.0339ZM45.8475 64.1357H29.7389V24.0509H45.8475V64.1357ZM84.2602 64.1357H53.2822V48.1018H84.2602V64.1357ZM84.2602 40.0848H53.2822V24.0509H84.2602V40.0848Z" fill="#297BDB"/>
<path d="M110.282 80.1697H106.565V8.01696H110.282C112.335 8.01696 113.999 6.22227 113.999 4.00836C113.999 1.7947 112.335 0 110.282 0C108.017 0 7.13592 0 3.71725 0C1.66436 0 0 1.7947 0 4.00836C0 6.22203 1.66436 8.01696 3.71725 8.01696H7.4345V80.1697H3.71725C1.66436 80.1697 0 81.9644 0 84.178C0 86.3917 1.66436 88.1864 3.71725 88.1864C5.69021 88.1864 50.5903 88.1864 53.2822 88.1864V108.012L33.5198 115.115C31.5723 115.815 30.5195 118.085 31.1688 120.186C31.8187 122.288 33.9253 123.42 35.8711 122.721L56.9999 115.127L78.1287 122.721C80.0758 123.421 82.1812 122.286 82.8309 120.186C83.4802 118.086 82.4275 115.815 80.4799 115.115L60.7176 108.012V88.1864C63.4126 88.1864 108.31 88.1864 110.282 88.1864C112.335 88.1864 114 86.3917 114 84.178C114 81.9644 112.335 80.1697 110.282 80.1697ZM99.1296 80.1697H14.8695V8.01696H99.1296V80.1697Z" fill="#297BDB"/>
</svg>
