<svg width="17" height="17" viewBox="0 0 17 17" fill="none" xmlns="http://www.w3.org/2000/svg">
<path d="M4.5 10.2889C4.25 10.2889 4.04167 10.2113 3.875 10.056C3.70833 9.90015 3.625 9.71111 3.625 9.48889C3.625 9.28148 3.70833 9.10015 3.875 8.94489C4.04167 8.78904 4.25 8.71111 4.5 8.71111C4.75 8.71111 4.95833 8.78904 5.125 8.94489C5.29167 9.10015 5.375 9.28148 5.375 9.48889C5.375 9.71111 5.29167 9.90015 5.125 10.056C4.95833 10.2113 4.75 10.2889 4.5 10.2889ZM8.5 10.2889C8.25 10.2889 8.04167 10.2113 7.875 10.056C7.70833 9.90015 7.625 9.71111 7.625 9.48889C7.625 9.28148 7.70833 9.10015 7.875 8.94489C8.04167 8.78904 8.25 8.71111 8.5 8.71111C8.75 8.71111 8.95833 8.78904 9.125 8.94489C9.29167 9.10015 9.375 9.28148 9.375 9.48889C9.375 9.71111 9.29167 9.90015 9.125 10.056C8.95833 10.2113 8.75 10.2889 8.5 10.2889ZM12.5 10.2889C12.25 10.2889 12.0417 10.2113 11.875 10.056C11.7083 9.90015 11.625 9.71111 11.625 9.48889C11.625 9.28148 11.7083 9.10015 11.875 8.94489C12.0417 8.78904 12.25 8.71111 12.5 8.71111C12.75 8.71111 12.9583 8.78904 13.125 8.94489C13.2917 9.10015 13.375 9.28148 13.375 9.48889C13.375 9.71111 13.2917 9.90015 13.125 10.056C12.9583 10.2113 12.75 10.2889 12.5 10.2889ZM1.8 17C1.3 17 0.875 16.8444 0.525 16.5333C0.175 16.2222 0 15.8444 0 15.4V3.48889C0 3.04444 0.175 2.66667 0.525 2.35556C0.875 2.04444 1.3 1.88889 1.8 1.88889H3.2V0.666667C3.2 0.474074 3.27067 0.314667 3.412 0.188444C3.554 0.0628147 3.73333 0 3.95 0C4.18333 0 4.37067 0.0666666 4.512 0.2C4.654 0.333333 4.725 0.496296 4.725 0.688889V1.88889H12.3V0.644444C12.3 0.466667 12.375 0.314667 12.525 0.188444C12.675 0.0628147 12.85 0 13.05 0C13.2667 0 13.4457 0.0666666 13.587 0.2C13.729 0.333333 13.8 0.488889 13.8 0.666667V1.88889H15.2C15.7 1.88889 16.125 2.04444 16.475 2.35556C16.825 2.66667 17 3.04444 17 3.48889V15.4C17 15.8444 16.825 16.2222 16.475 16.5333C16.125 16.8444 15.7 17 15.2 17H1.8ZM1.8 15.6667H15.2C15.2833 15.6667 15.3543 15.6409 15.413 15.5893C15.471 15.5372 15.5 15.4741 15.5 15.4V7.04444H1.5V15.4C1.5 15.4741 1.52933 15.5372 1.588 15.5893C1.646 15.6409 1.71667 15.6667 1.8 15.6667ZM1.5 5.71111H15.5V3.48889C15.5 3.41481 15.471 3.352 15.413 3.30044C15.3543 3.2483 15.2833 3.22222 15.2 3.22222H1.8C1.71667 3.22222 1.646 3.2483 1.588 3.30044C1.52933 3.352 1.5 3.41481 1.5 3.48889V5.71111Z" fill="#767676"/>
</svg>
